<svg width="106" height="60" viewBox="0 0 106 60" xmlns="http://www.w3.org/2000/svg"><title>Logo White</title><g fill="none" fill-rule="evenodd"><g transform="translate(41)"><ellipse stroke="#FFF" stroke-width="1.944" cx="22.545" cy="3.264" rx="2.249" ry="2.292"/><path d="M12.883 3.264l12.883 26.114-12.883-6.529V3.264zm0 0V22.85L0 29.378l3.33-6.75 9.553-19.364z" fill="#FFF"/></g><path d="M4.08 46.886c1.375 0 2.463-.56 3.243-1.429v-2.926H3.678v1.418h2.017v.914c-.31.286-.94.583-1.615.583-1.398 0-2.407-1.063-2.407-2.503 0-1.44 1.009-2.503 2.407-2.503.802 0 1.455.457 1.81.994l1.34-.731C6.659 39.8 5.662 39 4.08 39 1.834 39 0 40.531 0 42.943c0 2.4 1.834 3.943 4.08 3.943zm13.602-.137h-1.88l-1.5-2.709H13.11v2.709h-1.628v-7.623h3.576c1.593 0 2.578 1.04 2.578 2.457 0 1.337-.86 2.068-1.684 2.263l1.73 2.903zm-2.853-4.138c.641 0 1.134-.388 1.134-1.04 0-.628-.493-1.017-1.134-1.017h-1.72v2.057h1.72zm12.296 4.138V45.32h-3.782v-1.737h3.701v-1.429h-3.701v-1.6h3.782v-1.428h-5.41v7.623h5.41zm11.264 0h-1.845l-.481-1.292h-3.277l-.482 1.292H30.46l2.945-7.623h2.04l2.945 7.623zm-2.773-2.72l-1.192-3.28-1.192 3.28h2.384zm9.019 2.72v-6.195h2.223v-1.428H40.76v1.428h2.235v6.195h1.639zm18.782 0v-7.623h-1.628v4.788l-3.54-4.788h-1.674v7.623h1.628v-4.972l3.644 4.972h1.57zm8.01.137c-2.315 0-4-1.646-4-3.943s1.685-3.943 4-3.943c2.303 0 3.988 1.646 3.988 3.943s-1.685 3.943-3.988 3.943zm0-1.44c1.41 0 2.315-1.086 2.315-2.503 0-1.429-.906-2.503-2.315-2.503-1.421 0-2.326 1.074-2.326 2.503 0 1.417.905 2.503 2.326 2.503zm14.198 1.303h-1.88l-1.5-2.709h-1.192v2.709h-1.627v-7.623H83c1.593 0 2.578 1.04 2.578 2.457 0 1.337-.86 2.068-1.684 2.263l1.73 2.903zm-2.853-4.138c.641 0 1.134-.388 1.134-1.04 0-.628-.493-1.017-1.134-1.017h-1.72v2.057h1.72zm10.176 4.138v-6.195h2.223v-1.428h-6.097v1.428h2.235v6.195h1.639zm13.006 0v-7.623h-1.639v2.994h-3.61v-2.994h-1.627v7.623h1.628v-3.212h3.61v3.212h1.638zM43.92 59.327v-.581h-2.442v-4.66h-.654v5.241h3.097zm7.522 0h-.748l-.465-1.17h-2.616l-.464 1.17H46.4l2.12-5.24h.81l2.112 5.24zm-1.402-1.744l-1.119-2.829-1.11 2.829h2.229zm6.631 1.744h-2.395v-5.24h2.34c.914 0 1.473.55 1.473 1.335 0 .66-.44 1.1-.921 1.202.559.087 1.024.66 1.024 1.289 0 .84-.56 1.414-1.52 1.414zm-.165-2.97c.59 0 .906-.361.906-.84 0-.472-.315-.85-.906-.85H54.93v1.69h1.576zm.04 2.389c.606 0 .968-.346.968-.904 0-.48-.33-.903-.969-.903H54.93v1.807h1.615zm6.536.675c1.418 0 1.938-.785 1.938-1.54 0-1.956-3.112-1.28-3.112-2.459 0-.495.457-.833 1.08-.833.575 0 1.126.189 1.52.629l.394-.48c-.441-.463-1.063-.738-1.86-.738-1.04 0-1.811.597-1.811 1.461 0 1.87 3.112 1.116 3.112 2.468 0 .408-.3.911-1.237.911a2.17 2.17 0 0 1-1.647-.754l-.394.503c.434.487 1.111.832 2.017.832z" fill="#FFF"/></g></svg>