<svg xmlns="http://www.w3.org/2000/svg" width="24" height="24" viewBox="0 0 24 24"><path d="M8.175 7.377l-3.042-5.27 1.732-1L9.91 6.38a6.052 6.052 0 0 0-1.735.997zm-.799.8l-5.27-3.042-1 1.732L6.38 9.912a6.013 6.013 0 0 1 .996-1.735zM6 12c0-.341.035-.673.09-.999H0V13h6.09A5.998 5.998 0 0 1 6 12zm11.351-2.705l5.208-3.007-.333-.577-5.206 3.007c.121.185.23.379.331.577zM12 6c.341 0 .673.035.999.09V0H11v6.09c.326-.055.659-.09 1-.09zm3.14.894l3.004-5.204-.288-.166-3 5.197.284.173zm1.685 8.662l5.234 3.022.666-1.154-5.229-3.019c-.181.41-.408.794-.671 1.151zM6.381 14.089l-5.274 3.046 1 1.732 5.27-3.042a6.018 6.018 0 0 1-.996-1.736zM17.975 11.5L18 12l-.025.5H24v-1h-6.025zm-3.727 6.061l3.03 5.249 1.442-.833-3.031-5.25a6.04 6.04 0 0 1-1.441.834zM12 18c-.341 0-.674-.035-1-.09V24h1.999v-6.09c-.326.055-.658.09-.999.09zm-3.824-1.376l-3.042 5.27 1.732 1 3.045-5.274a6.026 6.026 0 0 1-1.735-.996z"/></svg>