<svg xmlns="http://www.w3.org/2000/svg"><symbol id="shape-arrow-down" viewBox="0 0 12 8"><title>Shape</title><path d="M6 8L0 0h12z" fill-rule="nonzero"/></symbol><symbol id="shape-arrow-left" viewBox="-65 62 12 22"><path d="M-54.7 63l.7.7-8.6 9.3 8.6 9.4-.7.6-9.3-10z"/></symbol><symbol id="shape-arrow-right" viewBox="-65 62 12 22"><path d="M-54 73l-9.3 10-.7-.6 8.6-9.4-8.6-9.3.7-.7z"/></symbol><symbol id="shape-arrow-up" viewBox="-70 67 22 12"><path d="M-59 68l10 9.3-.6.7-9.4-8.6-9.3 8.6-.7-.7z"/></symbol><symbol id="shape-close" viewBox="-10.4 -13.7 20.7 20.7"><path d="M10.4-13l-.8-.7L0-4.1l-9.6-9.6-.8.7 9.7 9.6-9.7 9.7.8.7L0-2.7 9.6 7l.8-.7L.7-3.4z"/></symbol><symbol id="shape-linkedin" viewBox="0 0 24 24"><title>Shape</title><path d="M12 0C5.373 0 0 5.373 0 12s5.373 12 12 12 12-5.373 12-12S18.627 0 12 0zm-2 16H8v-6h2v6zM9 9.109c-.607 0-1.1-.496-1.1-1.109 0-.612.492-1.109 1.1-1.109.608 0 1.1.497 1.1 1.109 0 .613-.493 1.109-1.1 1.109zM17 16h-1.998v-2.861c0-1.881-2.002-1.722-2.002 0V16h-2v-6h2v1.093c.872-1.616 4-1.736 4 1.548V16z" fill-rule="nonzero"/></symbol><symbol id="shape-twitter" viewBox="0 0 24 24"><title>Shape</title><path d="M12 0C5.373 0 0 5.373 0 12s5.373 12 12 12 12-5.373 12-12S18.627 0 12 0zm6.066 9.645c.183 4.04-2.83 8.544-8.164 8.544A8.127 8.127 0 0 1 5.5 16.898a5.778 5.778 0 0 0 4.252-1.189 2.879 2.879 0 0 1-2.684-1.995 2.88 2.88 0 0 0 1.298-.049c-1.381-.278-2.335-1.522-2.304-2.853.388.215.83.344 1.301.359a2.877 2.877 0 0 1-.889-3.835 8.153 8.153 0 0 0 5.92 3.001 2.876 2.876 0 0 1 4.895-2.62 5.73 5.73 0 0 0 1.824-.697 2.884 2.884 0 0 1-1.263 1.589 5.73 5.73 0 0 0 1.649-.453 5.765 5.765 0 0 1-1.433 1.489z" fill-rule="nonzero"/></symbol><symbol id="shape-youtube" viewBox="0 0 24 24"><title>Shape</title><path d="M12 0C5.373 0 0 5.373 0 12s5.373 12 12 12 12-5.373 12-12S18.627 0 12 0zm4.441 16.892c-2.102.144-6.784.144-8.883 0C5.282 16.736 5.017 15.622 5 12c.017-3.629.285-4.736 2.558-4.892 2.099-.144 6.782-.144 8.883 0C18.718 7.264 18.982 8.378 19 12c-.018 3.629-.285 4.736-2.559 4.892zM10 9.658l4.917 2.338L10 14.342V9.658z" fill-rule="nonzero"/></symbol></svg>